<?xml version="1.0" encoding="UTF-8"?>
<!DOCTYPE svg PUBLIC "-//W3C//DTD SVG 1.1//EN" "http://www.w3.org/Graphics/SVG/1.1/DTD/svg11.dtd">
<!-- Creator: CorelDRAW 2020 (64 Bit) -->
<svg xmlns="http://www.w3.org/2000/svg" xml:space="preserve" width="33.2661mm" height="10.0348mm" version="1.1" style="shape-rendering:geometricPrecision; text-rendering:geometricPrecision; image-rendering:optimizeQuality; fill-rule:evenodd; clip-rule:evenodd"
viewBox="0 0 1712.79 516.67"
 xmlns:xlink="http://www.w3.org/1999/xlink"
 xmlns:xodm="http://www.corel.com/coreldraw/odm/2003">
 <defs>
  <style type="text/css">
   <![CDATA[
    .fil0 {fill:#FEFEFE}
    .fil1 {fill:#FEFEFE;fill-rule:nonzero}
   ]]>
  </style>
 </defs>
 <g id="Camada_x0020_1">
  <metadata id="CorelCorpID_0Corel-Layer"/>
  <g id="_1537111666992">
   <g>
    <path class="fil0" d="M125.4 91.45c4.31,-5.1 15.88,-9.14 23.23,-11.32 17.37,-5.17 42.28,0.64 55.42,12.57 8.46,7.69 -1.42,2.58 18.55,16.8 5.48,3.9 3.6,4.12 6.8,11.46 2.07,4.78 3.27,7.05 5.74,11.03 5.29,8.55 6.59,14.15 9.94,24.75 5.02,15.86 4.59,42.72 17.18,51.88 -4,0.94 -1.43,-2.41 -5.79,0.79 -0.36,8.88 1.4,7.36 -0.64,18.65 -1.34,7.44 -0.54,15.86 -1.77,22.18 -1.26,6.42 -1.63,3.34 -4.1,7.37 -2.09,3.42 -1.94,13.05 -14.34,19.81l-15.37 8.43c-31.73,11.74 -26.36,-13.03 -51.81,-3.51 -2.93,15.87 9.55,26.09 22.92,31.02 9.82,3.62 11.12,7.11 23.84,3.67 9.31,-2.52 15.38,0.56 23.26,-2.74 5.81,-2.43 11.56,-6.88 18.11,-9.79 14.72,-6.54 22.07,-11.23 32.55,-21.95 9.51,-9.73 6.22,-0.88 10,-17.1 6.56,2.27 7.16,-1.19 10.96,-5.75 3.04,-3.64 7.07,-5.95 7.83,-10.06 1.72,-9.37 1.42,-24.41 6.71,-33.03 4.49,-7.33 6.05,-3.7 1.79,-12.96 -8.18,-17.75 -3.09,-71.94 -27.87,-101.78 -3.6,-4.34 -4.47,-8.8 -7.75,-11.76l-22.04 -16.32c-23.67,-12.65 -20.02,-7.57 -41.99,-15.44 -53.24,-19.06 -71.63,-5.19 -122.13,9.51 -18.18,5.29 -4.63,10.55 -26.19,4 -11.38,-3.46 -22.23,-4.99 -34.45,-5.15 -54.72,-0.71 -31.67,1.46 -43.97,24.44 13.4,11.52 26.59,6.24 45.53,7.84 1.64,3.87 9.27,49.11 8.87,52.85 -1.44,13.13 -6.66,-1.61 2.51,22.48 3.92,10.28 2.43,16.05 5.38,24.88 6.19,18.56 9.05,45.14 10.34,65.21 0.55,8.55 -1.12,7.57 -1.63,13.83 -0.65,7.98 5.05,16.03 5.56,24.46 0.8,13.17 -5.92,5.98 1.6,22.93 15,33.85 -3.1,58.35 7.53,79.81 8.88,17.91 3.54,30.72 5.59,36.92 7.75,23.43 4.56,24.33 -16.67,31.16 -6.71,2.15 -0.1,1.61 -10.3,4.77 -11.13,3.44 -4.3,7.06 -2.98,18.19 15.82,3.42 30.9,-2.3 45.81,-5.46 10.06,-2.14 15.71,-0.33 24.01,-1.7 14.95,-2.47 56.37,-9.3 69.73,-9.74l50.03 -2.3c0.64,-8.86 -1.8,-9.86 -5.82,-13.91 0.02,-0.06 7.4,-16.37 -11.04,-15.42 -40.46,2.1 -45.16,9.16 -57.55,-19.29 -3.86,-8.85 -3.6,-4.01 -6,-9.23 -2.51,-5.44 -7.2,-46.68 -7.93,-55.43 -0.67,-8.12 -0.95,-7.04 -2.93,-13.2 -1.53,-4.76 0.68,-4.45 -0.39,-11.96 -2.99,-21.03 -6.33,-14.31 -8.82,-23.02 -4.12,-14.38 -4.08,-33.14 -6.16,-42.98 -0.86,-4.1 0.23,-7.34 0.11,-12.54l-3.68 -44.26c-0.12,-6.5 1.82,-8.83 0.36,-14.95 -1.01,-4.24 -3.82,-7.71 -4.02,-13.43l-3.7 -41.93c-1.54,-11.51 -2.11,-17.18 -2.61,-28.79 -0.43,-9.87 -3.84,-16.74 -5.32,-25.49z"/>
    <path class="fil0" d="M855.39 197.66c3.66,-3.18 14.07,-9.96 22.87,-8.28 4.79,0.91 17.86,8.1 20.91,10.81 8.68,7.69 4.86,15.29 9.14,22.86 16.34,28.89 5.67,36.62 5.75,47.69 0.09,13.49 -4.53,11.93 -13.69,15.84 -4.86,2.07 -5.44,4.04 -11.53,5.27 -0.8,0.16 -30.83,-1.22 -16.3,20.91 7.41,0.58 9.76,-3.46 18.24,-4.4 11.23,-1.24 12.04,0.56 21.33,2.02 18.11,2.84 12.14,-10.55 32.49,10.68 9.69,10.11 3.96,6.79 9.28,24 0.9,2.91 0.57,0.67 0.6,3.55 0.16,16.41 6.93,15.22 15.38,33.8l-10.75 -2.95c0.39,8.89 6.47,27.39 10.63,32.33l22.02 18.95c10.72,4.84 19.01,9.79 31.87,10.13 50.55,1.32 33.26,1.03 52.57,-7.94 9.4,-4.38 3.44,-6.51 10.39,-10.76 4.33,-2.65 9.35,-2.94 14.23,-6.63 6.41,-4.85 3.29,-6.51 4.17,-13.81 0.84,-6.93 9.33,-23.47 3.41,-32.38 -4.49,-6.73 -22.34,-11 -32.09,-9.61 -1.83,1.86 -11.64,20.88 -12.25,23.4 7.01,4.32 22.85,10.12 15.72,21.22 -4.86,7.56 -18.55,9.02 -30.03,6.74 -22.09,-4.38 -12.84,-11.52 -22.31,-17.21 -4.92,-2.95 -1.72,1.67 -6.16,-3.93l-10.01 -19.33c-2.34,-9.71 -1.63,-22.69 -5.99,-32.4 -3.5,-7.8 -5.59,-3.21 -7.72,-11.75 -1.85,-7.43 -2.3,-7.59 -4.99,-14.45 -3.51,-8.9 -3.48,-4.25 -9.85,-9.84 -4.78,-4.18 -4.34,-6.3 -11.22,-8.92 -11.47,-4.38 -22.78,-4.74 -35.78,-4.76 2.88,-5.58 -0.2,-1.98 7.22,-7.46 2.47,-1.82 3.64,-3.3 6.01,-6.62 2.11,-2.95 2.7,-4.4 5.4,-7.35 15.17,-16.57 6.54,-11.26 12.6,-23.1 5.03,-9.82 4.78,-5.82 2.04,-17.24 -4.63,-19.28 -1.09,-13.08 -10.43,-25.73 -1.24,-1.68 -2.98,-4.68 -4.2,-6.98 -6.31,-12 -4.46,-4.88 -12.18,-11.79 -3.4,-3.04 -6.93,-9.13 -12.74,-11.28 -2.1,-0.77 -18.68,-3.5 -22.27,-4.06 -30.86,-4.87 -36.64,-2.69 -61.67,4.31 -6.74,1.88 -12.15,1.83 -19.02,4.34 -9.55,3.49 -11.03,1.28 -20.39,2.9 -5.47,0.95 -11.89,4.07 -17.8,5.66 -6.35,1.71 -14.37,1.64 -19.84,3.25 -2.49,8.03 -2.41,16.57 3.47,22.6l33.25 -8.42c0.36,9.24 1.85,24.44 1.02,32.79 -0.91,9.17 -0.18,22.61 3.72,30.6 2.82,5.78 4.16,4.24 4.98,13.03 0.43,4.61 1.78,10.09 1.08,14.25 -0.99,5.85 -3.66,5.47 -0.95,12.85 3.6,9.81 2.73,0.88 2.35,11.66 -0.23,6.71 2.35,8.7 2.83,14.47l3.26 31.22c0.93,5.06 1.85,8.83 2.4,14.01 0.78,7.25 1.51,8.52 3.06,14.85 1.37,5.61 0.72,8.46 2.21,14.1 1.83,6.91 1.47,7.16 2.33,14.34 0.27,2.29 1.23,5.33 1.35,6.91 1.19,14.91 -15.02,3.29 -24.11,9.58 -3.58,2.48 -3.19,3.37 -4.78,8.1 -0.43,1.29 -1.16,3.2 -1.17,3.21 -1.58,4.57 -1.75,2.84 -1.05,6.4 4.51,0.93 22.36,-1.43 29,-1.69 14.15,-0.55 64.6,8.94 88.87,7.28 0.9,-5.67 -2.68,-14.78 -4.58,-19.5 -6.92,-3.21 -8.61,-2.18 -16,-3.68 -4.65,-0.94 -4.28,-0.88 -7.02,-3.47 -0.11,-0.11 -2.03,-2.31 -2.64,-2.93 -9.83,-9.87 -4.02,-5.05 -8.28,-15.53 -2.23,-5.49 -5.31,-6.57 -6.96,-12.71 -2.24,-8.33 1.34,-9.89 -0.91,-18.04l-14.21 -81.79c-3.52,-11.59 -2.1,-22.74 1.13,-34.94 5.07,-19.14 -7.71,-49.73 -6.71,-69.28z"/>
    <path class="fil0" d="M1709.3 38.75c-2.09,-10.95 -1.43,-19.92 -13.34,-21.17 -0.77,6.59 0.77,9.74 -0.46,16.4l-3.01 9.41c-3.82,6.43 -1.46,3.9 -10.32,7.13 -16.52,6.02 -12.26,3.24 -28.41,5.91 -6.95,1.15 -8.11,2.9 -12.8,4.1 -9.95,2.53 -18.22,-6.49 -28.45,-5.67 -7.36,0.59 -6.02,2.62 -15.38,0.7 -0.94,-0.19 -5.97,-1.49 -6.67,-1.76 -7.25,-2.75 -1.19,-0.66 -5.5,-3.22 -8.23,-4.9 -20.71,-2.86 -28.08,-8.14 -5.04,-3.61 0.57,-3.68 -13.2,-4.63 -20.49,-1.42 -20.18,-7.65 -23.24,6.19 -1.05,4.73 -2.35,9.33 -2.76,14.53 2.29,1.73 25.25,12.8 27.99,18.77 2.4,5.23 0.06,5.15 4.75,10.44 16.64,18.75 4.52,27.8 20.5,39.2 -0.04,8.07 -2.4,3.88 0.46,13.31 1.36,4.47 2.7,7.1 3.99,11.32 6.99,22.85 6.9,9.43 9.65,22.3l7.82 21.2c3.53,7.66 7.21,14.98 10.01,22.06 5.66,14.32 11.7,20.09 18.93,29.92 10.95,14.9 8.15,4.56 12.01,20.15 1.92,7.78 2.09,4.13 6.41,8.94 6.57,7.34 3.79,14.12 8.62,21.28 -2.24,3.61 -0.23,1.63 -4.32,4.84 -1.93,1.51 -2.02,1.5 -4.44,2.53 -13.85,5.94 -38.56,-1.5 -56.97,14.6 -7.77,6.8 -12.3,2.72 -17.92,9.12l6.6 2.86c0.19,-0.32 0.75,0.2 1.08,0.4 -26.73,2.86 -13.61,1.23 -26.54,9.55 -10.05,6.46 -13.41,3.06 -21.35,14.97 -3.32,4.97 -8.95,21.7 -9.05,28.16 -0.08,5.19 3.89,7.82 5.71,12.08 2.55,5.94 1.01,8.47 2.03,14.28 4.45,3.84 2.39,0.97 5.78,5.53 1.7,2.28 2.2,3.41 4.28,5.52 8.38,8.49 31.42,15.02 42.9,18.73 7.58,2.45 8.61,0.4 16.76,-1.19 29.3,-5.72 11.12,-5.5 21.77,-6.87 5.97,-0.77 7.71,4.14 21.55,-5.1l21.55 -19.16c2.51,-3.17 0.97,-2.58 4.01,-5.87l14.85 -14.9c5.72,-5.27 5.99,-3.18 5.56,-13.77 -0.18,-4.2 7.38,-32.76 0.88,-52.2 -13.6,-40.66 -5.15,-18.79 -24.36,-54.81l-21.43 -38.54c-2.78,-6.05 -2.66,-7.5 -5.91,-13.55 -4.76,-8.85 2.38,-7.11 -12.65,-27.68 -8.08,-11.06 -32.63,-69.16 -35.67,-81.89 3.65,1.25 8.81,3.78 12.5,5.61 6.54,3.25 8.82,2.31 14.21,4.53 11.05,4.56 5.31,10.71 24.12,8.19 14.63,-1.97 22.42,3.5 32.19,2.58 10.91,-1.03 17.3,-4.56 25.83,-8.67 4.52,-2.18 17.9,-12.5 18.82,-17.41 3.05,-16.22 1.29,-44.35 -1.91,-61.15z"/>
    <path class="fil0" d="M1498.53 173.89l-2.31 -45.75c-2.21,-14.57 1.67,-16.15 -12.18,-20.78 -0.11,8.97 1.36,14.53 -2.44,22.43l-2.23 3.25c-0.11,0.15 -0.34,0.5 -0.46,0.65 -4.38,5.14 -19.59,6.98 -26.19,7.54 -18.75,1.6 -23.5,5.94 -28.65,4.93 -10.77,-2.11 -11.84,-8.83 -26.85,-6.14 -14.48,2.6 -16.46,-4.8 -25.64,-7.7 -4.32,-1.36 -10.68,-2.71 -15.16,-3.9 -16.57,-4.43 -5.57,-6.86 -18.72,-8.48 -2.67,-0.33 -4.84,-0.53 -7.57,-0.97 -4.18,-0.67 -11.56,-2.11 -15.57,-2.29 -9.6,-0.44 -5.33,1.95 -6.04,8.12 -0.91,7.94 -4.13,2.33 -5,12.54 4.1,4.4 16.58,7.04 26,15.76 4.06,3.75 5.33,7.83 7.62,13.45 3.23,7.97 3.54,5.28 8.82,10.61 1.51,10.07 -2.69,7.5 3.07,16.33 11.88,18.21 7.45,34.31 20.75,51.39 7.13,9.15 7.75,24.08 8.93,27.08 2.16,5.51 5.67,7.75 7.01,10.61 1.19,2.53 1.26,6.42 3.95,11.84l17.57 36.71c7.87,16.31 21.38,32.72 18.48,53.85 -16.8,9.12 -71.69,3.25 -74.87,25.39 -0.02,0.16 0.02,0.57 0.01,0.73 -0.01,0.16 0.07,0.58 0.07,0.74 -0.01,0.29 0.01,1.31 0,1.53l-0.28 1.62c-10.3,-1.16 -11.93,-3.03 -22.22,0.45 -5.2,1.76 -11.92,3.59 -15.79,6.28 -15.38,10.69 -10.85,16.7 -11.6,19.83 -2.39,9.94 -15.3,8.19 -13.47,18.81 1.28,7.43 7.3,27.95 13.06,31.36 18.73,11.07 4.57,9.22 30.51,16.59 5.53,1.58 9.41,4.11 17.14,6 20.57,5.05 20.56,1.03 37.07,-3.61 6.57,-1.85 11.61,-0.91 17.74,-4.29 19.38,-10.68 21.34,-3.82 29.5,-14.93 5.96,-8.1 5,-9.04 4.09,-19.69 2.63,1.51 4.2,3.62 7.47,4.03 4.24,-7.15 -1.8,-2.24 5.34,-8.69 13.21,-11.92 8.81,-9.64 10.82,-27.12 2.05,-17.83 4.69,-27.24 -0.37,-45.13 -6.33,-22.43 -14.11,-28.34 -16.6,-33.42 -3.66,-7.46 1.15,-2.7 -6.02,-13.44 -4.36,-6.53 -0.28,-5.38 -4.27,-13.73 -10.84,-22.69 -8.75,-15.62 -18.07,-44.34 -1.99,-6.13 -5.22,-11.9 -8.49,-16.58 -4.21,-6 -2.73,-12.65 -9.73,-27.66 -9.5,-20.41 -2.81,-8.77 -6.54,-18.38 -1.16,-2.99 -2.69,-5.14 -3.67,-8.99 -3.59,-14.21 -10.92,-7.2 -17.19,-32.95 6.48,1.94 18.59,6.41 25.71,9.12 11.54,4.4 5.12,10.59 24.75,9.36 21.91,-1.38 41.45,12.99 65.74,-9.32 4.64,-4.26 13.33,-12.14 12.97,-20.65z"/>
    <path class="fil0" d="M621.47 309.47c1.54,-7.23 1.75,-6.51 0.83,-14.08 -1.85,-15.28 1.88,-40.43 -5.51,-51.32l1.57 -1.49c4.46,-4.14 2.1,1.02 3.99,-4.68 0.08,-0.26 -1.93,-38.01 2.54,-48.82 4.24,-10.25 -0.31,-4.68 -0.73,-14.27 -0.33,-7.66 4.13,-8.72 2.06,-18.61 -1.6,-7.65 -4.2,-11.65 5.73,-11.83 20.76,-0.39 34.21,6.49 49.35,18.09 11.27,8.63 14.67,22.95 16.87,26.52 3.42,5.54 4.16,6.47 6.59,14.28 4.92,15.8 10.79,14.92 4.65,33.51 -3.5,10.58 -6.08,12.74 4.99,29.28 -0.3,0.18 -0.78,0.28 -0.96,0.39 -7.28,4.56 -2.82,6.94 -1.84,16.45l-6.67 38.62c-1.86,4.74 -5.22,4.31 -8.99,12.39 -4.71,10.11 -3.02,5.05 -12.62,9.9 -5.5,2.78 -7,5.98 -15.69,5.94 -9.71,-0.05 -31.37,-2.33 -40.86,-4.1 -8.72,-8.42 -5.43,-11.8 -4.97,-22.79 0.32,-7.74 -2.51,-3.19 -0.33,-13.36zm-75.29 -169.97c8.07,3.67 22.05,1.41 29.88,6.6 0.56,8.87 -0.58,19.35 -0.49,28.33 0.08,8.66 0.72,18.8 0.21,26.67 -0.68,10.56 0.94,8.85 0.99,13.01 0.06,5.23 -2.57,4.02 -2.84,10.88 -0.3,7.95 4.82,14.62 4.41,22.48 -0.42,8 -2.66,15.61 -3.15,25.58 -1.08,22 8.59,65.48 3.6,75.72l-30.36 3.58 -1.75 18.56c4.89,2.42 22.69,0.39 30.74,0.2 12.03,-0.28 17.88,0.52 29.89,1.85 19.33,2.14 40.18,-1.54 46.65,-1.03 19,1.51 4.04,-5.72 36.31,-10.16 14.64,-2.02 10.94,-4.99 21.01,-11.25 4.52,-2.81 5.77,-2.26 10.25,-6.48l11.71 -12.33c2.84,-2.9 1.74,-2.67 3.57,-4.96 5.25,-6.59 4.03,0.67 9.25,-6.44 0.98,-1.22 6.48,-17.64 6.69,-20.37 0.73,-9.54 -1.66,-3.78 2.96,-9.97 2.58,-3.47 3.12,-3.73 4.09,-8.65 1.43,-7.17 1.53,-16.75 0.36,-23.54 -2.59,-14.98 1.78,-6.17 5.38,-17.95 -2.3,-7.11 -6.84,-7.07 -7.56,-15.74 -2.71,-32.75 2.75,-15.06 -14.25,-47.38 -8.6,-16.35 -4.83,-11.93 -19.1,-22.95 -6.53,-5.05 -18.08,-13.25 -25.27,-17.4 -5.63,-3.26 -25.49,-8.02 -33.39,-10.02 -12.48,-3.16 -41.68,-0.25 -55.95,1.48 -6.52,0.79 -12.86,-1.24 -19.63,-1.85 -13.57,-1.23 -26.98,-3.48 -40.68,-3.53 -1.52,3.64 -4.17,14.41 -3.53,17.08z"/>
    <path class="fil0" d="M1090.25 294.18c0.41,-9.57 -3.07,-16.47 -5.13,-25.54 -1.43,-6.3 -0.39,-6.22 -2.83,-12.26l-9.73 -35.72c-2.18,-7.6 -5.68,-14.23 -6.85,-22.22 -1.41,-9.66 -2.32,-42.5 12.97,-48.12 55.05,-20.2 45.02,-5.74 64.93,7.46 9.26,6.14 14.17,1.95 19.16,12.3 2.5,5.19 0.58,6.52 3.94,11.18 3.05,4.22 3.97,2.45 6.29,9.14 5.27,15.23 3.72,1.75 11.17,18.25 10.15,22.49 0.88,17.59 17.2,43.78 8.38,13.45 0.92,7.14 2.42,22.39 0.93,9.47 2.41,15.54 4.31,23.77 -19.38,2.39 1.59,20.84 -25.11,29.75 -10.1,3.37 -4.23,2.41 -9.43,8.91 -14.34,5.03 -15.59,-0.4 -26.99,-1.9 -19.25,-2.53 -11.71,0.37 -23.91,-9.02 -7.51,-5.79 -13.37,-6.37 -17.96,-14.7 -8.14,-14.76 -3.95,-15.12 -14.48,-17.46zm-66 -104.59c1.2,6.36 -2.99,14.27 -2.99,22.47 0.01,12.26 5.24,10.1 4.38,25.61 -0.75,13.55 1.41,12.19 5.63,22.51 3.67,8.98 1.25,14.03 6.62,22.34 13.16,20.36 4.21,21.92 13.42,28.19 17.12,11.66 8.08,15.11 23.47,20.16 7.79,2.56 8.92,8.47 16.35,12.33 9.48,4.92 31.76,14.28 43.63,16.54 17.13,3.26 35.59,-2.6 39.43,-2.84 6.19,-0.39 6.81,1.77 12.57,-1.13 2.03,-1.02 5.83,-4.93 8.41,-6.97 10.15,-8.03 5.53,0.49 16.7,-12.85 7.32,-8.74 8.15,2.38 19.8,-23.96 3.21,-7.28 2.73,-2.46 5.9,-8.33 2.46,-4.57 7.04,-30.09 8.13,-36.78 0.86,-5.28 -0.22,-7.14 0.31,-13.25 0.58,-6.64 0.03,-8.1 -0.02,-14.24 -0.07,-9.04 4.16,-16.8 -1.21,-24.35 -12.02,-16.91 -1.51,-8.29 -16.17,-28.46 -4.91,-6.76 -6.67,-13.81 -15.98,-27.36 -11.59,-16.85 -63.44,-29.61 -83.97,-34.9 -26.54,-6.85 -29.56,-1.19 -49.08,3.67 -14.67,3.65 -9.66,1.08 -20.05,9.06 -5.37,4.12 -10.35,8.25 -14.06,15.49 -16.38,32.05 -23.48,25.01 -21.21,37.05z"/>
    <path class="fil0" d="M347.23 175.17c-4.46,7.78 -1.81,12.7 2.71,18.91l25.57 1.86c-0.17,8.46 -0.33,51.18 1.38,56.24 6.25,18.47 3.49,61.9 4.93,79.32 0.68,8.15 2.13,16.75 3.03,25.53 1.09,10.71 -0.41,18.67 0.21,28.41 0.64,10.09 6.49,5.56 0.81,20.85 -6.43,0.42 -9.43,-0.72 -15.87,0.78 -4.33,1.01 -9.37,3.04 -13.04,3.35 -7.07,0.59 -7.5,-3.38 -8.21,5.8 -1.65,21.56 19.93,7.56 64.58,8.74l42.06 0.72c10,-2.22 -8.37,-0.84 17.47,-2.38 8.98,-0.54 21.27,-0.93 29.56,-1.92 9.03,-1.09 23.34,0.18 29.64,-1.8 5.84,-8.27 0.54,-12.64 0.6,-21.31 0.05,-6.21 3.35,-13.83 0.77,-19.44 -2.45,-5.32 -9.89,-8.13 -16.31,-5.01 -5.31,2.58 -6.43,7.04 -9.19,13.52 -8.07,18.93 -15.44,8.22 -31.69,14.25 -4.92,1.83 -35.86,2.02 -40.8,0.15 -1.55,-4.12 0.49,-3.39 0.47,-9.97 -0.01,-2.89 -0.72,-6.7 -0.9,-10.09 -0.41,-7.5 -0.57,-12.62 -2.34,-19.75 -2.6,-10.41 -0.73,-31.83 -1.28,-44.19 18.53,4.48 19.6,-5.43 34.5,6.78 4.02,3.29 7.08,10.13 10.93,11.28 3.27,0.98 11.68,-2.01 16.48,-2.26 -0.07,-6.23 -1.84,-11.33 -1.85,-16.06 -0.02,-6.42 2.02,-7.42 1.51,-16.68 -0.32,-5.86 -1.45,-27.79 -2.36,-29.92 -27.2,-9.78 -18.97,12.08 -31.7,23.74 -4.79,4.39 -8.16,1.23 -14.29,2.21 -6.28,1 -7.23,4.2 -14.35,2.44 -0.82,-11.79 -2.02,-47.35 -5.24,-55.11 -4.62,-11.11 2.17,-10.87 -0.61,-23.72 -1.5,-6.91 -3.7,-18.16 -2.57,-24.89 12.88,-9.55 50.46,-6.71 68.33,-3.33 26.63,5.04 18.23,21.81 32.27,27.27 6.16,2.4 9.27,3.12 13.51,-0.34 2.94,-7.24 2.91,-37.12 0.77,-43.78 -6.32,-9.33 -33.77,-4.38 -45.1,-3.72l-73.22 -0.24c-8.76,1.07 -14.37,1.12 -23.09,1.71 -7.65,0.53 -4.66,2.07 -10.31,2.96l-37.76 -0.88z"/>
   </g>
   <path class="fil1" d="M405.94 32.35l0 8.54 0.04 8.2c0.03,3.06 0.12,5.08 0.26,6.09 0.14,0.99 0.34,1.64 0.61,1.93 0.27,0.3 0.79,0.56 1.53,0.76 0.76,0.22 2.63,0.37 5.6,0.49l0.33 0.24 0 2.11 -0.33 0.33c-7.12,-0.22 -11.14,-0.33 -12.07,-0.33 -0.89,0 -4.91,0.11 -12.03,0.33l-0.33 -0.33 0 -2.11 0.33 -0.24c2.64,-0.12 4.38,-0.26 5.24,-0.42 0.86,-0.18 1.44,-0.4 1.72,-0.67 0.3,-0.29 0.53,-0.85 0.72,-1.68 0.19,-0.85 0.29,-2.76 0.32,-5.73l0.04 -8.96 0 -19.47 -0.09 -8.21c-0.03,-3.19 -0.1,-5.26 -0.23,-6.17 -0.13,-0.94 -0.33,-1.55 -0.59,-1.85 -0.27,-0.31 -0.77,-0.56 -1.53,-0.76 -0.76,-0.2 -2.63,-0.34 -5.6,-0.46l-0.33 -0.3 0 -2.1 0.33 -0.3c11.88,0.17 18.83,0.26 20.82,0.26 6.68,0 13.53,-0.09 20.53,-0.26l0.34 0.3c-0.46,1.4 -0.75,2.99 -0.89,4.77 -0.14,1.78 -0.28,4.31 -0.46,7.55l-0.34 0.34 -1.97 0 -0.3 -0.34c-0.06,-0.19 -0.19,-1.28 -0.38,-3.23 -0.14,-1.55 -0.37,-2.96 -0.67,-4.25 -2.91,-0.99 -6.94,-1.48 -12.07,-1.48 -2.3,0 -4.99,0.17 -8.07,0.5 -0.31,2.2 -0.47,7.52 -0.47,16l0 7.28c3.56,0.05 5.99,0.07 7.28,0.07 2.38,0 4.43,-0.08 6.14,-0.27 1.71,-0.17 2.73,-0.36 3.07,-0.51 0.33,-0.17 0.59,-0.49 0.77,-0.95 0.19,-0.46 0.36,-1.48 0.54,-3.06l0.24 -2.27 0.3 -0.33 2.14 0 0.34 0.38 -0.3 9.22c0,1.06 0.05,2.6 0.13,4.62 0.11,2.3 0.17,4.08 0.17,5.34l-0.39 0.33 -2.1 0 -0.3 -0.33 -0.17 -3.57c-0.07,-1.41 -0.22,-2.43 -0.42,-3.07 -0.19,-0.64 -0.52,-1.06 -0.96,-1.26 -0.45,-0.19 -1.45,-0.38 -2.99,-0.55 -1.55,-0.18 -3.92,-0.25 -7.11,-0.25 -2.85,0 -4.97,0.05 -6.41,0.12z"/>
   <path id="1" class="fil1" d="M438.59 1.57l0.33 -0.3c9.62,0.17 15.78,0.26 18.46,0.26 9.2,0 17.39,-0.09 24.56,-0.26l0.22 0.3c-0.71,2.69 -1.22,6.9 -1.55,12.67l-0.26 0.33 -2.06 0 -0.38 -0.33c0.03,-0.26 0.05,-0.49 0.05,-0.67 0,-2.38 -0.19,-4.65 -0.55,-6.82 -1.77,-0.79 -4.21,-1.29 -7.34,-1.53 -3.13,-0.23 -5.48,-0.36 -7.05,-0.36 -2.21,0 -5.06,0.16 -8.5,0.47l-0.16 6.72 -0.13 7.7 -0.13 8.54c3.03,0.17 5.81,0.26 8.37,0.26 2.58,0 4.74,-0.09 6.47,-0.26 1.74,-0.16 2.76,-0.34 3.06,-0.52 0.29,-0.19 0.52,-0.55 0.66,-1.06 0.15,-0.51 0.28,-1.44 0.4,-2.75l0.17 -2.6 0.33 -0.34 1.94 0 0.34 0.34c-0.06,3.06 -0.13,6.13 -0.22,9.2l0.22 9.48 -0.34 0.33 -1.94 0 -0.33 -0.33 -0.3 -2.53c-0.25,-1.97 -0.43,-3.13 -0.55,-3.52 -0.1,-0.38 -0.38,-0.71 -0.78,-0.99 -0.4,-0.27 -1.45,-0.5 -3.13,-0.67 -1.68,-0.15 -3.99,-0.24 -6.94,-0.24 -1.64,0 -4.12,0.07 -7.45,0.22 -0.14,2.35 -0.22,6.27 -0.22,11.77 0,5.89 0.07,10.23 0.22,13l7.74 0c6.82,0 11.07,-0.09 12.79,-0.24 1.7,-0.18 3.33,-0.59 4.88,-1.22 0.24,-0.65 0.66,-2.14 1.24,-4.48 0.57,-2.35 0.9,-3.82 0.99,-4.41l0.42 -0.28 2.02 0 0.33 0.28c-0.24,1.21 -0.5,3.32 -0.73,6.32 -0.24,3 -0.36,5.57 -0.36,7.7l-0.3 0.33c-5.35,-0.16 -12.36,-0.24 -21.02,-0.24l-11.44 -0.09c-2.67,0 -5.44,0.11 -8.33,0.33l-0.34 -0.33 0 -1.39 0.34 -0.42c1.65,-0.85 2.59,-1.36 2.83,-1.58 0.24,-0.2 0.44,-2.66 0.59,-7.37 0.16,-4.69 0.23,-8.27 0.23,-10.74l0 -15.44 -0.03 -9.55c0,-2.09 -0.03,-3.78 -0.08,-5.07 -0.06,-1.3 -0.16,-2.24 -0.3,-2.8 -0.14,-0.56 -0.3,-0.96 -0.47,-1.18 -0.19,-0.23 -0.49,-0.42 -0.89,-0.58 -0.4,-0.15 -1.11,-0.28 -2.08,-0.4l-3.2 -0.24 -0.33 -0.3 0 -2.1z"/>
   <path id="2" class="fil1" d="M491.45 46.23l0.34 -0.33 2.05 0 0.34 0.33c0.14,3.59 0.33,5.79 0.56,6.59 0.25,0.79 1.01,1.64 2.29,2.51 1.26,0.89 2.97,1.61 5.08,2.17 2.13,0.56 4.26,0.85 6.42,0.85 2.98,0 5.64,-0.55 8.01,-1.64 2.37,-1.11 4.21,-2.7 5.53,-4.82 1.32,-2.11 1.98,-4.49 1.98,-7.12 0,-1.85 -0.32,-3.48 -0.95,-4.84 -0.63,-1.38 -1.51,-2.48 -2.66,-3.3 -1.13,-0.83 -2.43,-1.45 -3.89,-1.85 -1.45,-0.42 -3.61,-0.85 -6.52,-1.32 -2.8,-0.46 -4.99,-0.86 -6.57,-1.22 -1.58,-0.37 -3.16,-0.93 -4.74,-1.69 -1.57,-0.75 -2.87,-1.7 -3.93,-2.87 -1.05,-1.16 -1.88,-2.6 -2.51,-4.29 -0.63,-1.69 -0.95,-3.52 -0.95,-5.44 0,-5.26 1.82,-9.55 5.47,-12.89 3.64,-3.36 8.53,-5.04 14.67,-5.04 2.44,0 5.1,0.3 7.97,0.91 2.87,0.6 5.5,1.49 7.85,2.67l0.29 0.51c-0.62,2.57 -0.99,6.25 -1.13,11.01l-0.38 0.34 -2.2 0 -0.33 -0.3c-0.06,-3.36 -0.14,-5.48 -0.26,-6.34 -0.11,-0.88 -1.38,-1.96 -3.82,-3.25 -2.44,-1.29 -5.1,-1.94 -7.95,-1.94 -2.38,0 -4.61,0.49 -6.69,1.44 -2.07,0.95 -3.65,2.46 -4.71,4.49 -1.06,2.05 -1.59,4.14 -1.59,6.27 0,1.65 0.31,3.12 0.96,4.39 0.64,1.28 1.48,2.29 2.5,3.03 1.03,0.75 2.22,1.29 3.57,1.66 1.36,0.36 3.85,0.8 7.47,1.35 4.97,0.69 8.59,1.54 10.84,2.54 2.25,0.99 4.06,2.57 5.43,4.72 1.35,2.17 2.04,4.77 2.04,7.83 0,5.97 -2.44,10.96 -7.3,14.93 -4.87,3.99 -10.77,5.97 -17.69,5.97 -5.82,0 -10.9,-1.03 -15.28,-3.1l-0.25 -0.56c0.27,-1.77 0.49,-5.89 0.62,-12.36z"/>
   <path id="3" class="fil1" d="M584.11 1.27l0.39 0.39c-0.26,2.51 -0.39,6.92 -0.39,13.21l-0.33 0.33 -1.98 0 -0.33 -0.37 -0.47 -3.88c-0.22,-2.06 -0.4,-3.35 -0.51,-3.8 -0.13,-0.46 -0.33,-0.8 -0.62,-1 -0.27,-0.22 -1.19,-0.39 -2.73,-0.53 -1.55,-0.14 -3.27,-0.22 -5.17,-0.22l-7.95 0c-0.23,6.34 -0.34,10 -0.34,10.98l0 24.52 0.09 8.2c0.03,3.17 0.1,5.23 0.23,6.17 0.13,0.93 0.33,1.55 0.59,1.84 0.27,0.3 0.79,0.56 1.53,0.76 0.76,0.22 2.64,0.37 5.64,0.49l0.29 0.24 0 2.11 -0.29 0.33c-7.18,-0.22 -11.18,-0.33 -12.03,-0.33 -0.9,0 -4.89,0.11 -11.99,0.33l-0.33 -0.33 0 -2.11 0.33 -0.24c2.64,-0.12 4.38,-0.26 5.24,-0.42 0.84,-0.18 1.42,-0.39 1.72,-0.66 0.29,-0.26 0.54,-0.83 0.74,-1.69 0.2,-0.88 0.3,-2.82 0.3,-5.82l0.09 -8.87 0 -24.52c0,-0.44 -0.11,-4.1 -0.34,-10.98l-6.27 0c-2.57,0 -4.8,0.06 -6.68,0.17 -1.88,0.12 -2.97,0.4 -3.26,0.86 -0.3,0.46 -0.58,1.97 -0.83,4.52l-0.42 3.88 -0.37 0.37 -1.94 0 -0.33 -0.33c-0.06,-6.76 -0.19,-11.17 -0.39,-13.21l0.39 -0.39c4.88,0.23 13,0.34 24.35,0.34 11.59,0 19.71,-0.12 24.39,-0.34z"/>
   <path id="4" class="fil1" d="M588.62 1.27l5.26 0.17c3.44,0.11 5.72,0.18 6.78,0.18 0.95,0 4.97,-0.12 12.07,-0.34l0.33 0.3 0 2.1 -0.33 0.3c-1.94,0.06 -3.43,0.14 -4.48,0.24 -1.06,0.12 -1.82,0.33 -2.3,0.63 -0.47,0.31 -0.79,1.03 -0.95,2.17 -0.16,1.13 -0.23,2.71 -0.23,4.74l-0.08 9.68 0 19.47 0.04 8.2c0.03,3.17 0.11,5.23 0.26,6.15 0.13,0.93 0.33,1.55 0.6,1.85 0.27,0.32 0.78,0.58 1.54,0.78 0.76,0.22 2.63,0.37 5.6,0.49l0.33 0.24 0 2.11 -0.33 0.33c-0.14,0 -2.61,-0.07 -7.41,-0.24 -1.99,-0.06 -3.54,-0.09 -4.66,-0.09 -0.88,0 -4.88,0.11 -12.03,0.33l-0.34 -0.33 0 -2.11 0.34 -0.24c2.62,-0.12 4.35,-0.26 5.22,-0.42 0.88,-0.18 1.45,-0.39 1.75,-0.66 0.29,-0.26 0.53,-0.83 0.72,-1.69 0.18,-0.88 0.29,-2.82 0.3,-5.82l0.04 -8.87 0 -19.47 -0.07 -8.21c-0.03,-3.19 -0.11,-5.26 -0.24,-6.17 -0.11,-0.94 -0.32,-1.55 -0.59,-1.85 -0.26,-0.31 -0.78,-0.56 -1.52,-0.76 -0.76,-0.2 -2.63,-0.34 -5.6,-0.46l-0.34 -0.3 0 -2.1 0.34 -0.3z"/>
   <path id="5" class="fil1" d="M644.1 61.47c-0.43,-1.24 -2.18,-5.95 -5.27,-14.14l-14.3 -35.38c-1.62,-4.03 -2.64,-6.32 -3.07,-6.87 -0.42,-0.55 -2.1,-0.92 -5.04,-1.11l-0.37 -0.39 0 -1.93 0.37 -0.39c4.29,0.23 7.94,0.34 10.94,0.34 2.8,0 6.52,-0.12 11.14,-0.34l0.33 0.34 0 2.31 -0.33 0.33c-3.39,0 -5.41,0.11 -6.07,0.31 -0.66,0.22 -0.99,0.62 -0.99,1.2 0,0.33 0.45,1.82 1.35,4.48 0.89,2.64 1.69,4.88 2.4,6.7l13.17 33.28 10.97 -27.59c0.76,-1.88 1.87,-4.91 3.33,-9.09 1.45,-4.18 2.18,-6.69 2.18,-7.54 0,-0.69 -0.34,-1.15 -1.03,-1.34 -0.68,-0.2 -2.74,-0.44 -6.16,-0.72l-0.37 -0.34 0 -2.01 0.37 -0.34c4.91,0.23 8.04,0.34 9.38,0.34 1.09,0 3.93,-0.12 8.5,-0.34l0.34 0.34 0 2.01 -0.34 0.34c-2.01,0.09 -3.23,0.23 -3.66,0.46 -0.42,0.23 -0.79,0.66 -1.11,1.31 -0.33,0.64 -1.33,2.86 -3.02,6.65l-13.12 32.3c-2.95,7.21 -5.04,12.79 -6.26,16.78l-4.25 0z"/>
   <path id="6" class="fil1" d="M671.02 61.03l-0.38 -0.33 0 -2.18 0.38 -0.34c2.04,-0.03 3.36,-0.13 3.95,-0.31 0.59,-0.18 1.12,-0.55 1.58,-1.09 0.46,-0.55 1.4,-2.34 2.8,-5.35l4.42 -9.59 11.44 -25.91c2.16,-5.08 4.29,-10.15 6.44,-15.24l2.72 0 17.96 42.24 2.39 5.63c0.71,1.61 1.51,3.35 2.43,5.23 0.9,1.87 1.53,2.99 1.88,3.32 0.36,0.33 0.79,0.6 1.31,0.78 0.51,0.19 1.68,0.29 3.48,0.31l0.33 0.34 0 2.18 -0.33 0.33c-2.98,-0.24 -5.66,-0.37 -8.04,-0.37 -4.65,0.14 -9.3,0.27 -13.95,0.37l-0.34 -0.33 0 -2.18 0.34 -0.34c3.14,-0.06 5.1,-0.19 5.89,-0.4 0.79,-0.2 1.18,-0.69 1.18,-1.45 0,-0.62 -0.2,-1.43 -0.59,-2.45l-5.17 -12.82 -24.36 0 -4.58 10.77c-0.82,1.94 -1.22,3.34 -1.22,4.25 0,0.71 0.37,1.22 1.13,1.55 0.76,0.34 2.67,0.52 5.73,0.55l0.37 0.34 0 2.18 -0.34 0.33c-3.61,-0.22 -6.78,-0.33 -9.5,-0.33 -3.08,0 -6.19,0.11 -9.33,0.33zm19.18 -23.59l21.28 0 -10.55 -25.37 -10.72 25.37z"/>
   <path id="7" class="fil1" d="M737.72 1.57l0.34 -0.3c6.95,0.23 10.97,0.34 12.03,0.34 0.95,0 4.97,-0.12 12.07,-0.34l0.33 0.3 0 2.1 -0.33 0.3c-1.94,0.06 -3.43,0.14 -4.48,0.24 -1.06,0.12 -1.82,0.33 -2.3,0.63 -0.47,0.31 -0.79,1.03 -0.95,2.17 -0.16,1.13 -0.23,2.71 -0.23,4.74l-0.09 9.68 0 18.59c0,4.65 0.03,7.89 0.09,9.75l0.22 7.28 8.57 0c6.85,0 11.11,-0.09 12.8,-0.24 1.69,-0.18 3.33,-0.59 4.91,-1.22 0.3,-0.71 0.75,-2.33 1.32,-4.84 0.58,-2.53 0.88,-3.99 0.91,-4.38l0.37 -0.33 2.07 0 0.29 0.33c-0.22,1.12 -0.46,3.29 -0.69,6.52 -0.25,3.23 -0.36,5.83 -0.36,7.83l-0.33 0.33c-5.32,-0.16 -12.33,-0.24 -20.99,-0.24l-12.29 -0.09c-2.8,0 -5.65,0.11 -8.57,0.33l-0.34 -0.33 0 -1.39 0.34 -0.42c1.74,-0.91 2.68,-1.45 2.85,-1.64 0.16,-0.2 0.34,-2.01 0.52,-5.43 0.19,-3.42 0.27,-7.55 0.27,-12.36l0 -18.05 -0.07 -8.21c-0.03,-3.19 -0.11,-5.26 -0.24,-6.17 -0.12,-0.94 -0.32,-1.55 -0.59,-1.85 -0.26,-0.31 -0.77,-0.56 -1.53,-0.76 -0.75,-0.2 -2.62,-0.34 -5.59,-0.46l-0.34 -0.3 0 -2.1z"/>
   <path id="8" class="fil1" d="M811.59 1.57l0.33 -0.3c4.85,0.23 8.17,0.34 9.93,0.34l19.68 -0.43c5.62,0 10.21,0.53 13.8,1.58 3.59,1.06 6.78,2.88 9.56,5.47 2.8,2.6 4.91,5.61 6.36,9.05 1.44,3.43 2.17,7.11 2.17,11 0,3.79 -0.66,7.54 -1.98,11.22 -1.32,3.71 -3.19,7.02 -5.62,9.95 -2.43,2.93 -5.2,5.3 -8.28,7.09 -3.1,1.8 -6.21,2.99 -9.31,3.59 -3.12,0.61 -6.31,0.91 -9.55,0.91 -2.19,0 -6.32,-0.07 -12.37,-0.24 -1.98,-0.06 -3.31,-0.09 -3.95,-0.09 -1.94,0 -4.28,0.11 -7.02,0.33l-0.34 -0.33 0 -1.39 0.34 -0.42c1.65,-0.85 2.6,-1.36 2.83,-1.58 0.24,-0.2 0.44,-2.66 0.59,-7.37 0.16,-4.69 0.24,-8.27 0.24,-10.74l0 -15.44 -0.04 -9.55c0,-2.09 -0.03,-3.78 -0.09,-5.07 -0.06,-1.3 -0.16,-2.24 -0.3,-2.8 -0.14,-0.56 -0.3,-0.96 -0.47,-1.18 -0.19,-0.23 -0.49,-0.42 -0.89,-0.58 -0.4,-0.15 -1.11,-0.28 -2.09,-0.4l-3.2 -0.24 -0.33 -0.3 0 -2.1zm15.56 54.89c2.86,0.56 6.16,0.84 9.88,0.84 6.53,0 11.75,-1.09 15.68,-3.28 3.9,-2.18 6.83,-5.43 8.77,-9.72 1.93,-4.28 2.9,-9.12 2.9,-14.5 0,-7.94 -2.13,-14.1 -6.36,-18.47 -4.23,-4.37 -10.89,-6.56 -20.01,-6.56 -3.76,0 -7.38,0.29 -10.85,0.85 -0.23,4.59 -0.34,9.79 -0.34,15.56l0 13.21 0.09 12.36c0,2.41 0.09,5.65 0.26,9.72z"/>
   <path id="9" class="fil1" d="M880.08 1.57l0.33 -0.3c9.62,0.17 15.78,0.26 18.46,0.26 9.2,0 17.39,-0.09 24.56,-0.26l0.22 0.3c-0.71,2.69 -1.22,6.9 -1.55,12.67l-0.26 0.33 -2.06 0 -0.38 -0.33c0.03,-0.26 0.05,-0.49 0.05,-0.67 0,-2.38 -0.19,-4.65 -0.55,-6.82 -1.77,-0.79 -4.21,-1.29 -7.34,-1.53 -3.13,-0.23 -5.48,-0.36 -7.05,-0.36 -2.21,0 -5.06,0.16 -8.5,0.47l-0.16 6.72 -0.13 7.7 -0.13 8.54c3.03,0.17 5.81,0.26 8.37,0.26 2.58,0 4.74,-0.09 6.47,-0.26 1.74,-0.16 2.76,-0.34 3.06,-0.52 0.29,-0.19 0.52,-0.55 0.66,-1.06 0.15,-0.51 0.28,-1.44 0.4,-2.75l0.17 -2.6 0.33 -0.34 1.94 0 0.34 0.34c-0.06,3.06 -0.13,6.13 -0.22,9.2l0.22 9.48 -0.34 0.33 -1.94 0 -0.33 -0.33 -0.3 -2.53c-0.25,-1.97 -0.43,-3.13 -0.55,-3.52 -0.1,-0.38 -0.38,-0.71 -0.78,-0.99 -0.4,-0.27 -1.45,-0.5 -3.13,-0.67 -1.68,-0.15 -3.99,-0.24 -6.94,-0.24 -1.64,0 -4.12,0.07 -7.45,0.22 -0.14,2.35 -0.22,6.27 -0.22,11.77 0,5.89 0.07,10.23 0.22,13l7.74 0c6.82,0 11.07,-0.09 12.79,-0.24 1.7,-0.18 3.33,-0.59 4.88,-1.22 0.24,-0.65 0.66,-2.14 1.24,-4.48 0.57,-2.35 0.9,-3.82 0.99,-4.41l0.42 -0.28 2.02 0 0.33 0.28c-0.24,1.21 -0.5,3.32 -0.73,6.32 -0.24,3 -0.36,5.57 -0.36,7.7l-0.3 0.33c-5.35,-0.16 -12.36,-0.24 -21.02,-0.24l-11.44 -0.09c-2.67,0 -5.44,0.11 -8.33,0.33l-0.34 -0.33 0 -1.39 0.34 -0.42c1.65,-0.85 2.59,-1.36 2.83,-1.58 0.24,-0.2 0.44,-2.66 0.59,-7.37 0.16,-4.69 0.23,-8.27 0.23,-10.74l0 -15.44 -0.03 -9.55c0,-2.09 -0.03,-3.78 -0.08,-5.07 -0.06,-1.3 -0.16,-2.24 -0.3,-2.8 -0.14,-0.56 -0.3,-0.96 -0.47,-1.18 -0.19,-0.23 -0.49,-0.42 -0.89,-0.58 -0.4,-0.15 -1.11,-0.28 -2.08,-0.4l-3.2 -0.24 -0.33 -0.3 0 -2.1z"/>
   <path id="10" class="fil1" d="M953.64 1.27l5.26 0.17c3.44,0.11 5.72,0.18 6.78,0.18 0.95,0 4.97,-0.12 12.07,-0.34l0.33 0.3 0 2.1 -0.33 0.3c-1.94,0.06 -3.43,0.14 -4.48,0.24 -1.06,0.12 -1.82,0.33 -2.3,0.63 -0.47,0.31 -0.79,1.03 -0.95,2.17 -0.16,1.13 -0.23,2.71 -0.23,4.74l-0.08 9.68 0 19.47 0.04 8.2c0.03,3.17 0.11,5.23 0.26,6.15 0.13,0.93 0.33,1.55 0.6,1.85 0.27,0.32 0.78,0.58 1.54,0.78 0.76,0.22 2.63,0.37 5.6,0.49l0.33 0.24 0 2.11 -0.33 0.33c-0.14,0 -2.61,-0.07 -7.41,-0.24 -1.99,-0.06 -3.54,-0.09 -4.66,-0.09 -0.88,0 -4.88,0.11 -12.03,0.33l-0.34 -0.33 0 -2.11 0.34 -0.24c2.62,-0.12 4.35,-0.26 5.22,-0.42 0.88,-0.18 1.45,-0.39 1.75,-0.66 0.29,-0.26 0.53,-0.83 0.72,-1.69 0.18,-0.88 0.29,-2.82 0.3,-5.82l0.04 -8.87 0 -19.47 -0.07 -8.21c-0.03,-3.19 -0.11,-5.26 -0.24,-6.17 -0.11,-0.94 -0.32,-1.55 -0.59,-1.85 -0.26,-0.31 -0.78,-0.56 -1.52,-0.76 -0.76,-0.2 -2.63,-0.34 -5.6,-0.46l-0.34 -0.3 0 -2.1 0.34 -0.3z"/>
   <path id="11" class="fil1" d="M982.95 61.01l-0.37 -0.39 0 -1.94 0.37 -0.33c1.72,-0.03 3.09,-0.13 4.11,-0.3 1.02,-0.16 1.68,-0.44 1.98,-0.83 0.28,-0.39 0.48,-1.02 0.59,-1.89 0.1,-0.88 0.19,-2.83 0.29,-5.89 0.1,-3.06 0.15,-5.24 0.15,-6.56l0 -33.99c0,-1.44 -0.27,-2.5 -0.79,-3.19 -0.51,-0.67 -1.22,-1.12 -2.13,-1.29 -0.89,-0.19 -2.43,-0.28 -4.58,-0.31l-0.33 -0.34 0 -1.97 0.33 -0.39c3.88,0.14 6.4,0.22 7.61,0.22 2.84,0 5.16,-0.07 6.99,-0.22l13.41 17.41 19.72 24.74c2.38,3 4.81,5.84 7.28,8.53l0 -32.55c0,-1.02 -0.04,-3.16 -0.14,-6.46 -0.1,-3.29 -0.22,-5.39 -0.36,-6.26 -0.14,-0.89 -0.39,-1.48 -0.74,-1.8 -0.36,-0.3 -1.02,-0.55 -1.98,-0.68 -0.96,-0.16 -2.29,-0.25 -3.93,-0.27l-0.33 -0.34 0 -1.93 0.33 -0.39c2.27,0.14 5.51,0.22 9.72,0.22 3.84,0 6.64,-0.07 8.37,-0.22l0.38 0.39 0 1.93 -0.33 0.34c-1.85,0.03 -3.28,0.13 -4.29,0.31 -1.01,0.17 -1.64,0.47 -1.89,0.91 -0.26,0.41 -0.43,1.03 -0.54,1.85 -0.08,0.8 -0.19,2.74 -0.28,5.8 -0.1,3.06 -0.14,5.25 -0.14,6.61l0 19.97 0.04 11.57c0.04,3.79 0.1,7.58 0.16,11.4 -1.4,-0.47 -3.82,-1.06 -7.28,-1.77l-2.99 -3.53 -8.96 -10.94 -28.51 -35.62 0 32.26c0,1.29 0.06,3.59 0.14,6.89 0.1,3.32 0.22,5.31 0.36,6.02 0.14,0.7 0.33,1.19 0.55,1.45 0.23,0.27 0.72,0.52 1.45,0.75 0.75,0.22 2.29,0.34 4.61,0.38l0.34 0.33 0 1.98 -0.34 0.34c-1.45,-0.2 -3.8,-0.3 -7.06,-0.3 -4.18,0 -7.84,0.1 -10.98,0.3z"/>
   <path id="12" class="fil1" d="M1080.71 61.47c-0.43,-1.24 -2.18,-5.95 -5.27,-14.14l-14.3 -35.38c-1.62,-4.03 -2.64,-6.32 -3.07,-6.87 -0.42,-0.55 -2.1,-0.92 -5.04,-1.11l-0.37 -0.39 0 -1.93 0.37 -0.39c4.29,0.23 7.94,0.34 10.94,0.34 2.8,0 6.52,-0.12 11.14,-0.34l0.33 0.34 0 2.31 -0.33 0.33c-3.39,0 -5.41,0.11 -6.07,0.31 -0.66,0.22 -0.99,0.62 -0.99,1.2 0,0.33 0.45,1.82 1.35,4.48 0.89,2.64 1.69,4.88 2.4,6.7l13.17 33.28 10.97 -27.59c0.76,-1.88 1.87,-4.91 3.33,-9.09 1.45,-4.18 2.18,-6.69 2.18,-7.54 0,-0.69 -0.34,-1.15 -1.03,-1.34 -0.68,-0.2 -2.74,-0.44 -6.16,-0.72l-0.37 -0.34 0 -2.01 0.37 -0.34c4.91,0.23 8.04,0.34 9.38,0.34 1.09,0 3.93,-0.12 8.5,-0.34l0.34 0.34 0 2.01 -0.34 0.34c-2.01,0.09 -3.23,0.23 -3.66,0.46 -0.42,0.23 -0.79,0.66 -1.11,1.31 -0.33,0.64 -1.33,2.86 -3.02,6.65l-13.12 32.3c-2.95,7.21 -5.04,12.79 -6.26,16.78l-4.25 0z"/>
   <path id="13" class="fil1" d="M1117.05 1.57l0.33 -0.3c9.62,0.17 15.78,0.26 18.46,0.26 9.2,0 17.39,-0.09 24.56,-0.26l0.22 0.3c-0.71,2.69 -1.22,6.9 -1.55,12.67l-0.26 0.33 -2.06 0 -0.38 -0.33c0.03,-0.26 0.05,-0.49 0.05,-0.67 0,-2.38 -0.19,-4.65 -0.55,-6.82 -1.77,-0.79 -4.21,-1.29 -7.34,-1.53 -3.13,-0.23 -5.48,-0.36 -7.05,-0.36 -2.21,0 -5.06,0.16 -8.5,0.47l-0.16 6.72 -0.13 7.7 -0.13 8.54c3.03,0.17 5.81,0.26 8.37,0.26 2.58,0 4.74,-0.09 6.47,-0.26 1.74,-0.16 2.76,-0.34 3.06,-0.52 0.29,-0.19 0.52,-0.55 0.66,-1.06 0.15,-0.51 0.28,-1.44 0.4,-2.75l0.17 -2.6 0.33 -0.34 1.94 0 0.34 0.34c-0.06,3.06 -0.13,6.13 -0.22,9.2l0.22 9.48 -0.34 0.33 -1.94 0 -0.33 -0.33 -0.3 -2.53c-0.25,-1.97 -0.43,-3.13 -0.55,-3.52 -0.1,-0.38 -0.38,-0.71 -0.78,-0.99 -0.4,-0.27 -1.45,-0.5 -3.13,-0.67 -1.68,-0.15 -3.99,-0.24 -6.94,-0.24 -1.64,0 -4.12,0.07 -7.45,0.22 -0.14,2.35 -0.22,6.27 -0.22,11.77 0,5.89 0.07,10.23 0.22,13l7.74 0c6.82,0 11.07,-0.09 12.79,-0.24 1.7,-0.18 3.33,-0.59 4.88,-1.22 0.24,-0.65 0.66,-2.14 1.24,-4.48 0.57,-2.35 0.9,-3.82 0.99,-4.41l0.42 -0.28 2.02 0 0.33 0.28c-0.24,1.21 -0.5,3.32 -0.73,6.32 -0.24,3 -0.36,5.57 -0.36,7.7l-0.3 0.33c-5.35,-0.16 -12.36,-0.24 -21.02,-0.24l-11.44 -0.09c-2.67,0 -5.44,0.11 -8.33,0.33l-0.34 -0.33 0 -1.39 0.34 -0.42c1.65,-0.85 2.59,-1.36 2.83,-1.58 0.24,-0.2 0.44,-2.66 0.59,-7.37 0.16,-4.69 0.23,-8.27 0.23,-10.74l0 -15.44 -0.03 -9.55c0,-2.09 -0.03,-3.78 -0.08,-5.07 -0.06,-1.3 -0.16,-2.24 -0.3,-2.8 -0.14,-0.56 -0.3,-0.96 -0.47,-1.18 -0.19,-0.23 -0.49,-0.42 -0.89,-0.58 -0.4,-0.15 -1.11,-0.28 -2.08,-0.4l-3.2 -0.24 -0.33 -0.3 0 -2.1z"/>
   <path id="14" class="fil1" d="M1168.36 1.57l0.34 -0.3c5.12,0.23 9.12,0.34 11.98,0.34 3.17,0 7.45,-0.1 12.83,-0.3 2,-0.06 3.43,-0.09 4.34,-0.09 7.09,0 11.9,1.29 14.43,3.88 2.51,2.58 3.77,5.63 3.77,9.18 0,2.35 -0.62,4.66 -1.85,6.94 -1.24,2.27 -3.04,4.21 -5.46,5.83 -2.41,1.61 -5.74,2.83 -9.98,3.63 0.79,1.09 2.21,2.99 4.25,5.69l5.97 7.89c1.94,2.62 4.01,5.37 6.24,8.27 2.21,2.9 3.65,4.55 4.29,4.92 0.63,0.38 1.19,0.6 1.65,0.69 0.47,0.09 1.2,0.13 2.21,0.13l0.34 0.33 0 1.98 -0.39 0.39c-1.35,-0.17 -2.94,-0.26 -4.79,-0.26 -1.98,0 -4.17,0.09 -6.52,0.26 -1.94,-2.37 -4.98,-6.45 -9.13,-12.24 -4.82,-6.73 -9.75,-12.96 -14.8,-18.73l0.42 -1.29c1.47,0.07 2.6,0.12 3.42,0.12 4.85,0 8.64,-1.16 11.4,-3.49 2.74,-2.33 4.12,-5.56 4.12,-9.67 0,-3.71 -1.24,-6.49 -3.7,-8.39 -2.47,-1.89 -5.8,-2.84 -10.01,-2.84 -2.94,0 -5.73,0.4 -8.33,1.22 -0.43,0.62 -0.63,5.87 -0.63,15.78l0 19.47 0.05 8.2c0.03,3.17 0.1,5.23 0.24,6.15 0.14,0.93 0.34,1.55 0.62,1.85 0.26,0.32 0.77,0.58 1.53,0.78 0.75,0.22 2.62,0.37 5.59,0.49l0.34 0.24 0 2.11 -0.34 0.33c-0.14,0 -2.6,-0.07 -7.39,-0.24 -2,-0.06 -3.55,-0.09 -4.68,-0.09 -0.86,0 -4.87,0.11 -12.02,0.33l-0.34 -0.33 0 -2.11 0.34 -0.24c2.6,-0.12 4.34,-0.26 5.21,-0.42 0.86,-0.18 1.45,-0.39 1.74,-0.66 0.3,-0.26 0.55,-0.83 0.72,-1.69 0.19,-0.88 0.29,-2.82 0.31,-5.82l0.05 -8.87 0 -19.47 -0.09 -8.21c-0.03,-3.19 -0.1,-5.26 -0.23,-6.17 -0.13,-0.94 -0.31,-1.55 -0.59,-1.85 -0.26,-0.31 -0.78,-0.56 -1.53,-0.76 -0.76,-0.2 -2.62,-0.34 -5.59,-0.46l-0.34 -0.3 0 -2.1z"/>
   <path id="15" class="fil1" d="M1226.91 61.01l-0.37 -0.39 0 -1.94 0.37 -0.33c1.72,-0.03 3.09,-0.13 4.11,-0.3 1.02,-0.16 1.68,-0.44 1.98,-0.83 0.28,-0.39 0.48,-1.02 0.59,-1.89 0.1,-0.88 0.19,-2.83 0.29,-5.89 0.1,-3.06 0.15,-5.24 0.15,-6.56l0 -33.99c0,-1.44 -0.27,-2.5 -0.79,-3.19 -0.51,-0.67 -1.22,-1.12 -2.13,-1.29 -0.89,-0.19 -2.43,-0.28 -4.58,-0.31l-0.33 -0.34 0 -1.97 0.33 -0.39c3.88,0.14 6.4,0.22 7.61,0.22 2.84,0 5.16,-0.07 6.99,-0.22l13.41 17.41 19.72 24.74c2.38,3 4.81,5.84 7.28,8.53l0 -32.55c0,-1.02 -0.04,-3.16 -0.14,-6.46 -0.1,-3.29 -0.22,-5.39 -0.36,-6.26 -0.14,-0.89 -0.39,-1.48 -0.74,-1.8 -0.36,-0.3 -1.02,-0.55 -1.98,-0.68 -0.96,-0.16 -2.29,-0.25 -3.93,-0.27l-0.33 -0.34 0 -1.93 0.33 -0.39c2.27,0.14 5.51,0.22 9.72,0.22 3.84,0 6.64,-0.07 8.37,-0.22l0.38 0.39 0 1.93 -0.33 0.34c-1.85,0.03 -3.28,0.13 -4.29,0.31 -1.01,0.17 -1.64,0.47 -1.89,0.91 -0.26,0.41 -0.43,1.03 -0.54,1.85 -0.08,0.8 -0.19,2.74 -0.28,5.8 -0.1,3.06 -0.14,5.25 -0.14,6.61l0 19.97 0.04 11.57c0.04,3.79 0.1,7.58 0.16,11.4 -1.4,-0.47 -3.82,-1.06 -7.28,-1.77l-2.99 -3.53 -8.96 -10.94 -28.51 -35.62 0 32.26c0,1.29 0.06,3.59 0.14,6.89 0.1,3.32 0.22,5.31 0.36,6.02 0.14,0.7 0.33,1.19 0.55,1.45 0.23,0.27 0.72,0.52 1.45,0.75 0.75,0.22 2.29,0.34 4.61,0.38l0.34 0.33 0 1.98 -0.34 0.34c-1.45,-0.2 -3.8,-0.3 -7.06,-0.3 -4.18,0 -7.84,0.1 -10.98,0.3z"/>
   <path id="16" class="fil1" d="M1297.75 31.72c0,-4.21 0.6,-8.12 1.81,-11.78 1.2,-3.65 3.26,-7.02 6.16,-10.11 2.9,-3.1 6.4,-5.5 10.49,-7.19 4.09,-1.71 8.72,-2.55 13.89,-2.55 9.56,0 17.17,2.6 22.82,7.81 5.67,5.2 8.5,12.31 8.5,21.31 0,6.33 -1.38,12.03 -4.16,17.07 -2.78,5.05 -6.75,8.97 -11.92,11.77 -5.18,2.82 -11,4.21 -17.44,4.21 -4.57,0 -8.77,-0.76 -12.62,-2.28 -3.84,-1.54 -7.11,-3.8 -9.82,-6.84 -2.7,-3.03 -4.67,-6.53 -5.89,-10.52 -1.22,-3.97 -1.82,-7.6 -1.82,-10.89zm8.74 -2.77c0,3.42 0.56,7.11 1.67,11.04 1.11,3.95 2.75,7.32 4.95,10.14 2.21,2.81 4.75,4.91 7.63,6.29 2.87,1.38 6.14,2.07 9.82,2.07 4.35,0 8.21,-1 11.6,-2.99 3.4,-2 5.97,-5.08 7.74,-9.28 1.78,-4.19 2.66,-8.9 2.66,-14.11 0,-5.67 -1,-10.78 -3.03,-15.36 -2.03,-4.57 -4.9,-7.88 -8.63,-9.97 -3.72,-2.06 -7.86,-3.12 -12.41,-3.12 -6.8,0 -12.17,2.14 -16.11,6.41 -3.92,4.26 -5.89,10.55 -5.89,18.88z"/>
  </g>
 </g>
</svg>
